<?xml version="1.0" encoding="iso-8859-1"?>
<!-- Generator: Adobe Illustrator 18.0.0, SVG Export Plug-In . SVG Version: 6.00 Build 0)  -->
<!DOCTYPE svg PUBLIC "-//W3C//DTD SVG 1.1//EN" "http://www.w3.org/Graphics/SVG/1.1/DTD/svg11.dtd">
<svg version="1.1" id="Capa_1" xmlns="http://www.w3.org/2000/svg" xmlns:xlink="http://www.w3.org/1999/xlink" x="0px" y="0px"
	 viewBox="0 0 512.085 512.085" style="enable-background:new 0 0 512.085 512.085;" xml:space="preserve">
<path d="M416.04,32.043c-29.453,0-55.835,13.355-73.46,34.297c-34.438-21.602-75.011-34.297-118.574-34.297
	C100.49,32.043,0,132.527,0,256.043s100.482,224,223.997,224s223.999-100.484,223.999-224c0-56.887-21.493-108.727-56.548-148.273
	c5.875-7.102,14.678-11.727,24.592-11.727c17.641,0,32.045,14.352,32.045,32v32c0,17.672,14.328,32,32,32s32-14.328,32-32v-32
	C512.085,75.105,468.977,32.043,416.04,32.043z M95.994,304.031c-26.508,0-48-21.492-48-48c0-26.52,21.492-48,48-48s48,21.48,48,48
	C143.994,282.539,122.502,304.031,95.994,304.031z M223.994,432.031c-26.508,0-48-21.492-48-48c0-26.52,21.492-48,48-48
	s48,21.48,48,48C271.994,410.539,250.502,432.031,223.994,432.031z M191.994,256.043c0-17.672,14.328-32,32-32s32,14.328,32,32
	s-14.328,32-32,32S191.994,273.714,191.994,256.043z M223.994,176.031c-26.508,0-48-21.492-48-48c0-26.519,21.492-48,48-48
	s48,21.48,48,48C271.994,154.539,250.502,176.031,223.994,176.031z M399.994,256.031c0,26.508-21.492,48-48,48
	c-26.508,0-48-21.492-48-48c0-26.52,21.492-48,48-48C378.502,208.031,399.994,229.511,399.994,256.031z"/>
<g>
</g>
<g>
</g>
<g>
</g>
<g>
</g>
<g>
</g>
<g>
</g>
<g>
</g>
<g>
</g>
<g>
</g>
<g>
</g>
<g>
</g>
<g>
</g>
<g>
</g>
<g>
</g>
<g>
</g>
</svg>
